<svg width="66.000000" height="71.000000" viewBox="0 0 66 71" fill="none" xmlns="http://www.w3.org/2000/svg" xmlns:xlink="http://www.w3.org/1999/xlink">
	<desc>
			Created with Pixso.
	</desc>
	<defs/>
	<path id="Habbit" d="M2.07 66.55C2.25 66.73 2.47 66.82 2.73 66.82Q3.01 66.82 3.22 66.69Q3.32 66.64 3.4 66.55C3.58 66.37 3.67 66.15 3.67 65.88L3.67 60.52L12.02 60.52L12.02 65.88C12.02 66.15 12.11 66.37 12.29 66.55Q12.41 66.67 12.55 66.73Q12.73 66.82 12.96 66.82C13.23 66.82 13.45 66.73 13.62 66.55C13.79 66.37 13.87 66.15 13.87 65.88L13.87 53.7C13.87 53.42 13.79 53.2 13.62 53.03C13.45 52.85 13.23 52.76 12.96 52.76Q12.73 52.76 12.55 52.85Q12.41 52.91 12.29 53.03C12.11 53.2 12.02 53.42 12.02 53.7L12.02 58.86L3.67 58.86L3.67 53.7C3.67 53.42 3.58 53.2 3.4 53.03Q3.32 52.94 3.22 52.88Q3.01 52.76 2.73 52.76C2.47 52.76 2.25 52.85 2.07 53.03C1.89 53.2 1.8 53.42 1.8 53.7L1.8 65.88C1.8 66.15 1.89 66.37 2.07 66.55ZM32.32 66.47Q33.26 66.89 34.39 66.89C35.34 66.89 36.19 66.67 36.93 66.24C37.67 65.8 38.26 65.2 38.69 64.44Q38.84 64.19 38.96 63.92Q39.36 62.99 39.36 61.89C39.36 60.94 39.16 60.09 38.75 59.35C38.35 58.59 37.81 58 37.11 57.57C36.41 57.12 35.63 56.9 34.75 56.9Q33.95 56.9 33.25 57.15Q33.01 57.24 32.79 57.35C32.2 57.64 31.7 58.03 31.28 58.54L31.28 53.68Q31.28 53.37 31.14 53.15Q31.09 53.08 31.03 53.01C30.86 52.84 30.64 52.76 30.36 52.76Q30.11 52.76 29.91 52.86Q29.79 52.92 29.69 53.01Q29.63 53.08 29.58 53.15Q29.44 53.37 29.44 53.68L29.44 61.89C29.45 62.83 29.68 63.69 30.11 64.44C30.54 65.2 31.13 65.8 31.87 66.24Q32.09 66.37 32.32 66.47ZM44.98 66.47Q45.92 66.89 47.05 66.89C48 66.89 48.84 66.67 49.59 66.24C50.33 65.8 50.92 65.2 51.35 64.44Q51.5 64.19 51.61 63.92Q52.02 62.99 52.02 61.89C52.02 60.94 51.81 60.09 51.4 59.35C51.01 58.59 50.46 58 49.77 57.57C49.07 57.12 48.28 56.9 47.41 56.9Q46.61 56.9 45.9 57.15Q45.67 57.24 45.45 57.35C44.86 57.64 44.35 58.03 43.93 58.54L43.93 53.68C43.93 53.4 43.85 53.18 43.68 53.01C43.51 52.84 43.29 52.76 43.02 52.76Q42.77 52.76 42.57 52.86Q42.45 52.92 42.35 53.01C42.18 53.18 42.1 53.4 42.1 53.68L42.1 61.89Q42.11 63.07 42.56 64.05Q42.65 64.25 42.76 64.44C43.2 65.2 43.78 65.8 44.53 66.24Q44.75 66.37 44.98 66.47ZM55.01 55.03C55.25 55.26 55.53 55.37 55.85 55.37Q56.1 55.37 56.31 55.28Q56.51 55.2 56.68 55.03C56.92 54.79 57.04 54.51 57.04 54.18Q57.04 53.96 56.96 53.76Q56.87 53.54 56.68 53.35Q56.5 53.16 56.27 53.07Q56.08 52.99 55.85 52.99C55.53 52.99 55.25 53.11 55.01 53.35C54.78 53.58 54.66 53.86 54.66 54.18C54.66 54.51 54.78 54.79 55.01 55.03ZM62.15 66.37C62.63 66.67 63.17 66.82 63.77 66.82L64.09 66.82Q64.5 66.82 64.77 66.62Q64.81 66.6 64.85 66.57C65.05 66.4 65.15 66.18 65.15 65.92C65.15 65.65 65.08 65.44 64.92 65.27C64.78 65.1 64.6 65.02 64.38 65.02L63.77 65.02C63.38 65.02 63.06 64.86 62.8 64.53C62.53 64.21 62.4 63.81 62.4 63.33L62.4 58.88L63.93 58.88C64.18 58.88 64.39 58.81 64.54 58.66C64.7 58.52 64.78 58.34 64.78 58.12C64.78 57.88 64.7 57.69 64.54 57.55C64.39 57.4 64.18 57.33 63.93 57.33L62.4 57.33L62.4 54.74C62.4 54.48 62.32 54.26 62.15 54.09C61.98 53.92 61.76 53.84 61.5 53.84Q61.23 53.84 61.03 53.96Q60.93 54.01 60.85 54.09C60.68 54.26 60.6 54.48 60.6 54.74L60.6 57.33L59.77 57.33C59.52 57.33 59.32 57.4 59.16 57.55C59 57.69 58.93 57.88 58.93 58.12C58.93 58.34 59 58.52 59.16 58.66C59.32 58.81 59.52 58.88 59.77 58.88L60.6 58.88L60.6 63.33C60.6 63.99 60.74 64.58 61.01 65.11C61.29 65.64 61.67 66.06 62.15 66.37ZM19.65 66.55Q20.45 66.89 21.4 66.89C22.27 66.89 23.06 66.67 23.76 66.24C24.19 65.97 24.56 65.64 24.87 65.25L24.87 65.92C24.87 66.18 24.96 66.4 25.12 66.58C25.3 66.75 25.53 66.84 25.79 66.84Q26.06 66.84 26.26 66.72Q26.36 66.67 26.44 66.58C26.62 66.4 26.71 66.18 26.71 65.92L26.71 61.9Q26.71 60.8 26.31 59.87Q26.19 59.6 26.04 59.35C25.61 58.59 25.02 58 24.28 57.57Q24.02 57.41 23.75 57.29Q22.84 56.9 21.76 56.9Q20.73 56.9 19.84 57.26Q19.52 57.39 19.22 57.57Q18.74 57.84 18.35 58.21Q17.82 58.7 17.44 59.35C17.01 60.1 16.79 60.96 16.79 61.9Q16.79 63.24 17.32 64.32Q17.35 64.39 17.38 64.46Q17.76 65.14 18.29 65.66Q18.63 65.98 19.04 66.24Q19.33 66.42 19.65 66.55ZM55.19 66.57C55.37 66.73 55.59 66.82 55.85 66.82Q56.16 66.82 56.38 66.68Q56.45 66.63 56.52 66.57C56.69 66.39 56.77 66.16 56.77 65.9L56.77 57.89C56.77 57.61 56.69 57.39 56.52 57.22C56.35 57.06 56.13 56.97 55.85 56.97C55.59 56.97 55.37 57.06 55.19 57.22C55.02 57.39 54.93 57.61 54.93 57.89L54.93 65.9C54.93 66.16 55.02 66.39 55.19 66.57ZM23.4 64.84C22.92 65.13 22.37 65.27 21.76 65.27C21.16 65.27 20.61 65.13 20.12 64.84C19.64 64.54 19.26 64.14 18.97 63.63C18.69 63.12 18.55 62.54 18.55 61.9C18.55 61.26 18.69 60.68 18.97 60.18C19.26 59.66 19.64 59.26 20.12 58.97C20.61 58.67 21.16 58.52 21.76 58.52C22.37 58.52 22.92 58.67 23.4 58.97C23.88 59.26 24.25 59.66 24.53 60.18Q24.55 60.2 24.56 60.23Q24.94 60.97 24.94 61.9Q24.94 62.71 24.65 63.38Q24.6 63.51 24.53 63.63C24.25 64.14 23.88 64.54 23.4 64.84ZM36.03 64.84C35.55 65.13 35 65.27 34.39 65.27C33.79 65.27 33.25 65.13 32.75 64.84C32.27 64.54 31.9 64.13 31.62 63.61C31.34 63.1 31.21 62.52 31.21 61.89C31.21 61.24 31.34 60.66 31.62 60.16C31.9 59.65 32.27 59.26 32.75 58.97C33.25 58.67 33.79 58.52 34.39 58.52C35 58.52 35.55 58.67 36.03 58.97C36.51 59.26 36.89 59.65 37.16 60.16C37.45 60.66 37.6 61.24 37.6 61.89C37.6 62.52 37.45 63.1 37.16 63.61C36.89 64.13 36.51 64.54 36.03 64.84ZM48.69 64.84C48.21 65.13 47.66 65.27 47.05 65.27C46.45 65.27 45.9 65.13 45.41 64.84C44.93 64.54 44.55 64.13 44.28 63.61Q44.21 63.49 44.16 63.37Q43.86 62.69 43.86 61.89Q43.86 60.95 44.25 60.21Q44.26 60.19 44.28 60.16C44.55 59.65 44.93 59.26 45.41 58.97C45.9 58.67 46.45 58.52 47.05 58.52C47.66 58.52 48.21 58.67 48.69 58.97C49.17 59.26 49.54 59.65 49.82 60.16C50.11 60.66 50.25 61.24 50.25 61.89C50.25 62.52 50.11 63.1 49.82 63.61C49.54 64.13 49.17 64.54 48.69 64.84Z" fill="#000000" fill-opacity="1.000000" fill-rule="evenodd"/>
	<rect id="Logomark" rx="0.000000" width="43.568626" height="43.568626" transform="translate(11.215686 0.215686)" fill="#FFFFFF" fill-opacity="0"/>
	<path id="Isometric square" d="M24.27 20.31C25.09 17.24 28.25 14.09 31.32 13.27L50.45 8.14C53.51 7.32 55.33 9.14 54.51 12.21L49.39 31.34C48.56 34.41 45.41 37.56 42.34 38.38L23.21 43.51C20.14 44.33 18.32 42.51 19.15 39.44L24.27 20.31Z" fill="#B8B8FF" fill-opacity="1.000000" fill-rule="nonzero"/>
	<path id="Isometric square" d="M16.6 12.64C17.43 9.58 20.58 6.42 23.65 5.6L42.78 0.47C45.85 -0.35 47.67 1.47 46.84 4.54L41.72 23.67C40.9 26.74 37.74 29.89 34.67 30.71L15.54 35.84C12.48 36.66 10.66 34.84 11.48 31.77L16.6 12.64Z" fill="#5051F9" fill-opacity="1.000000" fill-rule="nonzero"/>
</svg>
