<svg width="25.000000" height="25.000000" viewBox="0 0 25 25" fill="none" xmlns="http://www.w3.org/2000/svg" xmlns:xlink="http://www.w3.org/1999/xlink">
	<desc>
			Created with Pixso.
	</desc>
	<defs>
		<clipPath id="clip4_137">
			<rect rx="0.000000" width="24.843489" height="24.843489" transform="translate(0.078255 0.078255)" fill="white" fill-opacity="0"/>
		</clipPath>
	</defs>
	<rect rx="0.000000" width="24.843489" height="24.843489" transform="translate(0.078255 0.078255)" fill="#FFFFFF" fill-opacity="0"/>
	<g clip-path="url(#clip4_137)">
		<path d="M17.18 10.41L7.81 10.41" stroke="#5051F9" stroke-opacity="1.000000" stroke-width="1.000000"/>
		<path d="M7.81 18.22L17.18 18.22" stroke="#5051F9" stroke-opacity="1.000000" stroke-width="1.000000"/>
		<path d="M17.92 18.53C18.11 18.72 18.22 18.99 18.22 19.27L18.22 22.91C18.22 23.33 18.06 23.72 17.77 24.02C17.47 24.31 17.08 24.47 16.66 24.47L8.33 24.47C7.91 24.47 7.52 24.31 7.22 24.02C6.93 23.72 6.77 23.33 6.77 22.91L6.77 19.27C6.77 18.99 6.88 18.72 7.07 18.53C7.27 18.33 7.53 18.22 7.81 18.22L7.81 10.41C7.53 10.41 7.27 10.3 7.07 10.11C6.88 9.91 6.77 9.65 6.77 9.37L6.77 7.29C6.77 6.46 7.09 5.66 7.68 5.08C8.27 4.49 9.06 4.16 9.89 4.16L15.1 4.16C15.93 4.16 16.72 4.49 17.31 5.08C17.89 5.66 18.22 6.46 18.22 7.29L18.22 9.37C18.22 9.65 18.11 9.91 17.92 10.11C17.72 10.3 17.46 10.41 17.18 10.41L17.18 18.22C17.46 18.22 17.72 18.33 17.92 18.53Z" stroke="#5051F9" stroke-opacity="1.000000" stroke-width="1.000000"/>
		<path d="M15.1 4.16L15.1 1.56C15.1 1.28 14.99 1.02 14.79 0.82C14.6 0.63 14.33 0.52 14.06 0.52L10.93 0.52C10.66 0.52 10.39 0.63 10.2 0.82C10 1.02 9.89 1.28 9.89 1.56L9.89 4.16" stroke="#5051F9" stroke-opacity="1.000000" stroke-width="1.000000"/>
	</g>
</svg>
